<svg xmlns="http://www.w3.org/2000/svg" xmlns:xlink="http://www.w3.org/1999/xlink" contentStyleType="text/css" data-diagram-type="CLASS" height="818px" preserveAspectRatio="none" style="width:619px;height:818px;background:#FFFFFF;" version="1.1" viewBox="0 0 619 818" width="619px" zoomAndPan="magnify"><defs/><g><rect fill="#F9F9F9" height="26.6406" rx="2.5" ry="2.5" style="stroke:#DDDDDD;stroke-width:3;" width="608.2988" x="5" y="5"/><text fill="#000000" font-family="monospace" font-size="10" lengthAdjust="spacing" textLength="355.21" x="10" y="20">Please&#160;use&#160;'!option&#160;handwritten&#160;true'&#160;to&#160;enable&#160;handwritten</text><!--cluster System Core--><g class="cluster" data-entity="System Core" data-source-line="5" data-uid="ent0002" id="cluster_System Core"><rect fill="none" height="504" rx="2.5" ry="2.5" style="stroke:#000000;stroke-width:1.5;" width="286" x="80" y="43.6406"/><text fill="#000000" font-family="sans-serif" font-size="14" font-weight="bold" lengthAdjust="spacing" textLength="99.4834" x="173.2583" y="58.6357">System Core</text></g><!--cluster Rules & State--><g class="cluster" data-entity="Rules . State" data-source-line="25" data-uid="ent0006" id="cluster_Rules . State"><rect fill="none" height="112" rx="2.5" ry="2.5" style="stroke:#000000;stroke-width:1.5;" width="523" x="7" y="596.6406"/><text fill="#000000" font-family="sans-serif" font-size="14" font-weight="bold" lengthAdjust="spacing" textLength="107.7412" x="214.6294" y="611.6357">Rules &amp; State</text></g><!--class Node_System--><g class="entity" data-entity="Node_System" data-source-line="6" data-uid="ent0003" id="entity_Node_System"><rect fill="#F1F1F1" height="105.1563" rx="2.5" ry="2.5" style="stroke:#181818;stroke-width:0.5;" width="137.7197" x="210" y="78.6406"/><ellipse cx="229.489" cy="98.7734" fill="#929292" rx="11" ry="11" style="stroke:#181818;stroke-width:1;"/><path d="M225.4734,92.3828 L228.114,92.3828 L231.5671,101.3828 L231.5671,92.3828 L233.7234,92.3828 L233.7234,104.7734 L231.0984,104.7734 L227.6296,95.7734 L227.6296,104.7734 L225.4734,104.7734 L225.4734,92.3828 Z " fill="#000000"/><text fill="#000000" font-family="sans-serif" font-size="12" font-style="italic" lengthAdjust="spacing" textLength="79.7285" x="252.4944" y="94.7793">&#171;Immutable&#187;</text><text fill="#000000" font-family="sans-serif" font-size="14" lengthAdjust="spacing" textLength="95.7441" x="244.4866" y="110.6045">Node_System</text><line style="stroke:#181818;stroke-width:0.5;" x1="211" x2="346.7197" y1="118.9063" y2="118.9063"/><text fill="#000000" font-family="sans-serif" font-size="14" lengthAdjust="spacing" textLength="77.7451" x="216" y="135.9014">id: SYSTEM</text><text fill="#000000" font-family="sans-serif" font-size="14" lengthAdjust="spacing" textLength="92.6475" x="216" y="152.1982">type: System</text><text fill="#000000" font-family="sans-serif" font-size="14" lengthAdjust="spacing" textLength="125.7197" x="216" y="168.4951">label: The System</text><line style="stroke:#181818;stroke-width:0.5;" x1="211" x2="346.7197" y1="175.7969" y2="175.7969"/></g><!--class Node_Meta--><g class="entity" data-entity="Node_Meta" data-source-line="12" data-uid="ent0004" id="entity_Node_Meta"><rect fill="#F1F1F1" height="96.8906" rx="2.5" ry="2.5" style="stroke:#181818;stroke-width:0.5;" width="110.4033" x="104" y="260.6406"/><ellipse cx="119.047" cy="276.6406" fill="#C2C2C2" rx="11" ry="11" style="stroke:#181818;stroke-width:1;"/><path d="M115.0314,270.25 L117.672,270.25 L121.1251,279.25 L121.1251,270.25 L123.2814,270.25 L123.2814,282.6406 L120.6564,282.6406 L117.1876,273.6406 L117.1876,282.6406 L115.0314,282.6406 L115.0314,270.25 Z " fill="#000000"/><text fill="#000000" font-family="sans-serif" font-size="14" lengthAdjust="spacing" textLength="78.2988" x="133.0575" y="281.4873">Node_Meta</text><line style="stroke:#181818;stroke-width:0.5;" x1="105" x2="213.4033" y1="292.6406" y2="292.6406"/><text fill="#000000" font-family="sans-serif" font-size="14" lengthAdjust="spacing" textLength="60.9971" x="110" y="309.6357">id: META</text><text fill="#000000" font-family="sans-serif" font-size="14" lengthAdjust="spacing" textLength="98.4033" x="110" y="325.9326">type: Element</text><text fill="#000000" font-family="sans-serif" font-size="14" lengthAdjust="spacing" textLength="77.7861" x="110" y="342.2295">label: Meta</text><line style="stroke:#181818;stroke-width:0.5;" x1="105" x2="213.4033" y1="349.5313" y2="349.5313"/></g><!--class Node_Rules--><g class="entity" data-entity="Node_Rules" data-source-line="18" data-uid="ent0005" id="entity_Node_Rules"><rect fill="#F1F1F1" height="96.8906" rx="2.5" ry="2.5" style="stroke:#181818;stroke-width:0.5;" width="150.0791" x="96" y="434.6406"/><ellipse cx="127.2646" cy="450.6406" fill="#C2C2C2" rx="11" ry="11" style="stroke:#181818;stroke-width:1;"/><path d="M123.249,444.25 L125.8896,444.25 L129.3427,453.25 L129.3427,444.25 L131.499,444.25 L131.499,456.6406 L128.874,456.6406 L125.4052,447.6406 L125.4052,456.6406 L123.249,456.6406 L123.249,444.25 Z " fill="#000000"/><text fill="#000000" font-family="sans-serif" font-size="14" lengthAdjust="spacing" textLength="81.9355" x="144.879" y="455.4873">Node_Rules</text><line style="stroke:#181818;stroke-width:0.5;" x1="97" x2="245.0791" y1="466.6406" y2="466.6406"/><text fill="#000000" font-family="sans-serif" font-size="14" lengthAdjust="spacing" textLength="130.252" x="102" y="483.6357">id: RULES_SYSTEM</text><text fill="#000000" font-family="sans-serif" font-size="14" lengthAdjust="spacing" textLength="71.5449" x="102" y="499.9326">type: Rule</text><text fill="#000000" font-family="sans-serif" font-size="14" lengthAdjust="spacing" textLength="138.0791" x="102" y="516.2295">label: System Rules</text><line style="stroke:#181818;stroke-width:0.5;" x1="97" x2="245.0791" y1="523.5313" y2="523.5313"/></g><g class="entity" data-entity="First_Rule" data-source-line="26" data-uid="ent0007" id="entity_First_Rule"><rect fill="#F1F1F1" height="60.8906" rx="2.5" ry="2.5" style="stroke:#181818;stroke-width:0.5;" width="262.3184" x="23" y="631.6406"/><text fill="#000000" font-family="sans-serif" font-size="14" lengthAdjust="spacing" textLength="68.585" x="119.8667" y="646.6357">First_Rule</text><line style="stroke:#181818;stroke-width:0.5;" x1="24" x2="284.3184" y1="651.9375" y2="651.9375"/><text fill="#000000" font-family="sans-serif" font-size="14" lengthAdjust="spacing" textLength="108.541" x="29" y="668.9326">key: "first_rule"</text><text fill="#000000" font-family="sans-serif" font-size="14" lengthAdjust="spacing" textLength="250.3184" x="29" y="685.2295">value: "The Alchemist is in control."</text></g><g class="entity" data-entity="Version" data-source-line="31" data-uid="ent0008" id="entity_Version"><rect fill="#F1F1F1" height="60.8906" rx="2.5" ry="2.5" style="stroke:#181818;stroke-width:0.5;" width="194.0342" x="320" y="631.6406"/><text fill="#000000" font-family="sans-serif" font-size="14" lengthAdjust="spacing" textLength="52.5684" x="390.7329" y="646.6357">Version</text><line style="stroke:#181818;stroke-width:0.5;" x1="321" x2="513.0342" y1="651.9375" y2="651.9375"/><text fill="#000000" font-family="sans-serif" font-size="14" lengthAdjust="spacing" textLength="98.3281" x="326" y="668.9326">key: "version"</text><text fill="#000000" font-family="sans-serif" font-size="14" lengthAdjust="spacing" textLength="182.0342" x="326" y="685.2295">value: "0.0.0-pre-alpha-3"</text></g><g class="entity" data-entity="GMN13" data-source-line="46" data-uid="ent0014" id="entity_GMN13"><path d="M383,103.6406 L383,127.1406 L348.23,131.1406 L383,135.1406 L383,159.0391 A0,0 0 0 0 383,159.0391 L597.2988,159.0391 A0,0 0 0 0 597.2988,159.0391 L597.2988,113.6406 L587.2988,103.6406 L383,103.6406 A0,0 0 0 0 383,103.6406" fill="#FAFAFA" style="stroke:#181818;stroke-width:0.5;"/><path d="M587.2988,103.6406 L587.2988,113.6406 L597.2988,113.6406 L587.2988,103.6406" fill="#FAFAFA" style="stroke:#181818;stroke-width:0.5;"/><text fill="#000000" font-family="sans-serif" font-size="13" font-weight="bold" lengthAdjust="spacing" textLength="193.2988" x="389" y="120.7075">PROTECTED BY TRIGGERS:</text><ellipse cx="394.5" cy="131.4063" fill="#000000" rx="2.5" ry="2.5"/><text fill="#000000" font-family="sans-serif" font-size="13" lengthAdjust="spacing" textLength="64.5239" x="401" y="135.8403">No Delete</text><ellipse cx="394.5" cy="146.5391" fill="#000000" rx="2.5" ry="2.5"/><text fill="#000000" font-family="sans-serif" font-size="13" lengthAdjust="spacing" textLength="68.8911" x="401" y="150.9731">No Update</text></g><g class="entity" data-entity="GMN16" data-source-line="52" data-uid="ent0017" id="entity_GMN16"><path d="M52.5,755.6406 L52.5,811.0391 A0,0 0 0 0 52.5,811.0391 L255.335,811.0391 A0,0 0 0 0 255.335,811.0391 L255.335,765.6406 L245.335,755.6406 L158,755.6406 L154,692.8606 L150,755.6406 L52.5,755.6406 A0,0 0 0 0 52.5,755.6406" fill="#FAFAFA" style="stroke:#181818;stroke-width:0.5;"/><path d="M245.335,755.6406 L245.335,765.6406 L255.335,765.6406 L245.335,755.6406" fill="#FAFAFA" style="stroke:#181818;stroke-width:0.5;"/><text fill="#000000" font-family="sans-serif" font-size="13" font-weight="bold" lengthAdjust="spacing" textLength="181.835" x="58.5" y="772.7075">IMMUTABLE REFERENCE:</text><text fill="#000000" font-family="sans-serif" font-size="13" lengthAdjust="spacing" textLength="165.75" x="58.5" y="787.8403">The 'first_rule_ref' cannot</text><text fill="#000000" font-family="sans-serif" font-size="13" lengthAdjust="spacing" textLength="140.0801" x="58.5" y="802.9731">be changed once set.</text></g><!--link Node_System to Node_Meta--><g class="link" data-entity-1="Node_System" data-entity-2="Node_Meta" data-source-line="38" data-uid="lnk9" id="link_Node_System_Node_Meta"><path codeLine="38" d="M209.86,168.3906 C193.12,180.5106 177.15,195.6206 167,213.6406 C159.16,227.5506 156.4007,238.4977 155.6407,254.1677" fill="none" id="Node_System-to-Node_Meta" style="stroke:#181818;stroke-width:1;"/><polygon fill="#181818" points="155.35,260.1606,159.7813,251.365,155.5922,255.1665,151.7907,250.9774,155.35,260.1606" style="stroke:#181818;stroke-width:1;"/><text fill="#000000" font-family="sans-serif" font-size="13" lengthAdjust="spacing" textLength="217.7563" x="168" y="226.7075">E_SYSTEM_META (HAS_ELEMENT)</text></g><!--link Node_Meta to Node_Rules--><g class="link" data-entity-1="Node_Meta" data-entity-2="Node_Rules" data-source-line="39" data-uid="lnk10" id="link_Node_Meta_Node_Rules"><path codeLine="39" d="M162.34,358.0506 C164.01,381.9106 165.5906,404.6753 167.2606,428.5053" fill="none" id="Node_Meta-to-Node_Rules" style="stroke:#181818;stroke-width:1;"/><polygon fill="#181818" points="167.68,434.4906,171.041,425.233,167.3305,429.5029,163.0606,425.7923,167.68,434.4906" style="stroke:#181818;stroke-width:1;"/><text fill="#000000" font-family="sans-serif" font-size="13" lengthAdjust="spacing" textLength="181.4351" x="167" y="400.7075">E_META_RULES (HAS_RULE)</text></g><!--link Node_System to Version--><g class="link" data-entity-1="Node_System" data-entity-2="Version" data-source-line="42" data-uid="lnk11" id="link_Node_System_Version"><path codeLine="42" d="M348.15,175.8306 C367.35,189.4406 384.48,203.5106 390,213.6406 C466.34,353.7506 438.8607,550.5281 424.4307,625.7281" fill="none" id="Node_System-to-Version" style="stroke:#181818;stroke-width:1;stroke-dasharray:7,7;"/><polygon fill="#181818" points="423.3,631.6206,428.9244,623.5357,424.2423,626.7102,421.0677,622.0281,423.3,631.6206" style="stroke:#181818;stroke-width:1;"/><text fill="#000000" font-family="sans-serif" font-size="13" lengthAdjust="spacing" textLength="39.9395" x="439" y="400.7075">stores</text></g><!--link Node_Rules to First_Rule--><g class="link" data-entity-1="Node_Rules" data-entity-2="First_Rule" data-source-line="43" data-uid="lnk12" id="link_Node_Rules_First_Rule"><path codeLine="43" d="M166.4,532.0406 C163.35,563.7806 160.0248,598.4382 157.4148,625.5582" fill="none" id="Node_Rules-to-First_Rule" style="stroke:#181818;stroke-width:1;stroke-dasharray:7,7;"/><polygon fill="#181818" points="156.84,631.5306,161.6838,622.9552,157.319,626.5536,153.7206,622.1888,156.84,631.5306" style="stroke:#181818;stroke-width:1;"/><text fill="#000000" font-family="sans-serif" font-size="13" lengthAdjust="spacing" textLength="39.9395" x="165" y="576.7075">stores</text></g><!--SRC=[XLHTZvf057tdLzpGfAvDiRPzsCGO4Z_6hQdO1d2JVI83N8Kwp11ct8tPx7_l329IRLD8YDupzvmpzmp8VSvBMj42CihJbofN2ZbiAPDeoHOh11T9Lea2GLM7BbBIP4zt6AWZGwWmKPRLbC0EZb9X0JDHeGsl5kWhOLHAM8iKemOTZ-5k_V7TOd5_FnpsOLaK1qLZJUQwJO-vydG4mLCG4gyjgME9kbYpj4L6OsGZ23Fi8c_MjRY7Yfwb9_Fvv-cN_gsWHyB9bHnXM21Nrtg6xXzA_e6X_A-KlrcH8Fhh3Wt1jLupkvgxqNth3Fwa-Hu2HLKxUX7_ql708g-agbrrBEpnE09xMqELXkmMUQRie4tOPg8JbcHOv591BY7da0YkAi46TcF1FBjIZrZ9NF0RdUTJ_LPaED2tKrReK5PcrFbgNpRN0nyPLRfFPdafuOwaEvHzgtkM7CVjnAlJQYOQcIJXxjiaYCYAU6GTDdtrkhRhD3RJPjP7TIQdBlEpRpnynwFpQDo2UE5w6zhA7mu60xVTzWYaqaTVMXroWtSIQ9TON2Zz_kIxJ87OTbyGFO5nxFxqVuHa5f8vJ9yWz9SF3yGFHkDFiQln3tezp96XmlE_JPdgw2taAHZcXZyMIed225mydFYNdhS99zCL0PyiY4_MCt9cDydtBaSZgd3RWuHopMZIZX4I_UdOOGg29mWIrQ3L_Gq0]--></g></svg>